<svg width="24" height="24" viewBox="0 0 24 24" fill="none" xmlns="http://www.w3.org/2000/svg">
<path d="M9.46 13.895L3.927 13.895C1.381 13.895 4.691 2.99999 6.515 2.99999L19.036 2.99999C19.2894 2.99786 19.5332 3.0964 19.714 3.27397C19.8948 3.45154 19.9976 3.69361 20 3.94699L20 13.332C20 13.679 19.807 13.998 19.498 14.164C17.436 15.27 15.017 16.176 13.82 18.293L12.54 20.559C12.4637 20.6936 12.3528 20.8055 12.2189 20.883C12.085 20.9605 11.9328 21.0009 11.778 21C8.598 21 9.541 16.37 9.973 14.53C9.99038 14.4534 9.99017 14.3738 9.9724 14.2973C9.95463 14.2208 9.91974 14.1493 9.87038 14.0882C9.82101 14.0271 9.75844 13.9779 9.68736 13.9445C9.61629 13.911 9.53855 13.8941 9.46 13.895Z" stroke="#EFE6E1" stroke-width="1.5" stroke-linecap="round" stroke-linejoin="round"/>
</svg>
